<?xml version="1.0" encoding="utf-8"?>
<!-- Generator: Adobe Illustrator 18.0.0, SVG Export Plug-In . SVG Version: 6.00 Build 0)  -->
<!DOCTYPE svg PUBLIC "-//W3C//DTD SVG 1.1//EN" "http://www.w3.org/Graphics/SVG/1.1/DTD/svg11.dtd">
<svg version="1.1" id="Layer_1" xmlns:sketch="http://www.bohemiancoding.com/sketch/ns"
	 xmlns="http://www.w3.org/2000/svg" xmlns:xlink="http://www.w3.org/1999/xlink" x="0px" y="0px" viewBox="0 0 221 464"
	 enable-background="new 0 0 221 464" xml:space="preserve">
<title>apple-iphone-5s</title>
<description>Created with Sketch (http://www.bohemiancoding.com/sketch)</description>
<g id="Page-1" sketch:type="MSPage">
	<path id="Apple-iPhone-5S" sketch:type="MSShapeGroup" fill="#D2D7D3" d="M3,164H0v-17h3v-21H0v-17h3V87H0V66h3V34
		C3,16.3,17.3,2,35,2h114V0h36v2h4c17.7,0,32,14.3,32,32v398c0,17.7-14.3,32-32,32H35c-17.7,0-32-14.3-32-32V164z M94,40
		c-0.6,0-1,0.4-1,1v2c0,0.6,0.5,1,1,1h22.4H129c0.6,0,1-0.4,1-1v-2c0-0.6-0.4-1-1-1H94z M111.5,29c2.5,0,4.5-2,4.5-4.5
		s-2-4.5-4.5-4.5s-4.5,2-4.5,4.5S109,29,111.5,29z M18,66c-1.1,0-2,0.9-2,2v331c0,1.1,0.9,2,2,2h188c1.1,0,2-0.9,2-2V68
		c0-1.1-0.9-2-2-2H18z M112,450c10.5,0,19-8.5,19-19s-8.5-19-19-19s-19,8.5-19,19S101.5,450,112,450z M81,45c1.7,0,3-1.3,3-3
		s-1.3-3-3-3s-3,1.3-3,3S79.3,45,81,45z M112,448c9.4,0,17-7.6,17-17s-7.6-17-17-17s-17,7.6-17,17S102.6,448,112,448z"/>
</g>
<path fill="#BDC3C7" d="M128.7,44h-35c-1.1,0-2-0.9-2-2v0c0-1.1,0.9-2,2-2h35c1.1,0,2,0.9,2,2v0C130.7,43.1,129.8,44,128.7,44z"/>
<circle fill="#ECF0F1" stroke="#BDC3C7" stroke-width="4" stroke-miterlimit="10" cx="112.1" cy="430.4" r="18.6"/>
<polyline opacity="0.2" fill="#FFFFFF" points="16.4,66 208.2,66 208.2,401 "/>
<circle fill="#BDC3C7" cx="81" cy="42" r="3"/>
<ellipse fill="#BDC3C7" cx="111.4" cy="24.2" rx="5.1" ry="5"/>
</svg>
