<?xml version="1.0" encoding="utf-8"?>
<!-- Generator: Adobe Illustrator 18.0.0, SVG Export Plug-In . SVG Version: 6.00 Build 0)  -->
<!DOCTYPE svg PUBLIC "-//W3C//DTD SVG 1.1//EN" "http://www.w3.org/Graphics/SVG/1.1/DTD/svg11.dtd">
<svg version="1.1" id="Layer_1" xmlns="http://www.w3.org/2000/svg" xmlns:xlink="http://www.w3.org/1999/xlink" x="0px" y="0px"
	 viewBox="0 0 500 500" enable-background="new 0 0 500 500" xml:space="preserve">
<circle fill="#87D37C" cx="250" cy="250" r="245"/>
<path fill="#26A65B" d="M250,5c135.3,0,245,109.7,245,245S385.3,495,250,495"/>
<ellipse fill="#F9BF3B" cx="252" cy="275" rx="135" ry="108"/>
<path fill="#F9BF3B" d="M144.1,302l-45.2-9C89,293,81,284.9,81,275.1v-14.2c0-7.1,5.8-12.9,12.9-12.9h46.2c7.1,0,12.9,5.8,12.9,12.9
	v14.2C153,284.9,153.9,302,144.1,302z"/>
<path fill="#F9BF3B" d="M190.6,393.6h-12.3c-4.1,0-7.4-3.3-7.4-7.4V356c0-4.1,3.3-7.4,7.4-7.4h12.3c4.1,0,16.4,3.3,16.4,7.4l-9,30.3
	C198,390.3,194.7,393.6,190.6,393.6z"/>
<path fill="#F9BF3B" d="M325.6,392h-12.3c-4.1,0-7.4-3.3-7.4-7.4l-9-28.6c0-4.1,12.3-9,16.4-9h12.3c4.1,0,7.4,3.3,7.4,7.4v30.3
	C333,388.7,329.7,392,325.6,392z"/>
<circle fill="#F9BF3B" cx="247.5" cy="117.5" r="31.5"/>
<path fill="none" stroke="#F9BF3B" stroke-width="9" stroke-miterlimit="10" d="M337.7,251.4c15.1-12.9,32-23.7,50.1-32
	c18-8.2,52.1,13.5,36.2,34.3c-9.8,12.9-27.1-6.6-26.9-17.1c0.3-17.5,36.5-16.1,42-2.5"/>
<circle fill="#F5AB35" cx="162" cy="248" r="9"/>
<path fill="none" stroke="#F5AB35" stroke-width="10" stroke-miterlimit="10" d="M216,194c0,0,36-18,63,0"/>
<circle fill="#F5AB35" cx="247.5" cy="117.5" r="22.5"/>
</svg>
