<?xml version="1.0" encoding="utf-8"?>
<!-- Generator: Adobe Illustrator 18.0.0, SVG Export Plug-In . SVG Version: 6.00 Build 0)  -->
<!DOCTYPE svg PUBLIC "-//W3C//DTD SVG 1.1//EN" "http://www.w3.org/Graphics/SVG/1.1/DTD/svg11.dtd">
<svg version="1.1" id="Layer_1" xmlns="http://www.w3.org/2000/svg" xmlns:xlink="http://www.w3.org/1999/xlink" xmlns:sketch="http://www.bohemiancoding.com/sketch/ns" x="0px" y="0px"
	 viewBox="0 0 400 700" enable-background="new 0 0 400 700" xml:space="preserve">
<g>
	<g>
		<ellipse fill="#D68A65" cx="25.9" cy="246.1" rx="16.2" ry="16.4"/>
		<path fill="#D68A65" d="M46.8,287.9l-30.5-28.6c-4.8-4.5-5.1-12.2-0.5-17l5.5-5.9c4.5-4.8,12.2-5.1,17-0.5l30.5,28.6
			c4.8,4.5,5.1,12.2,0.5,17l-5.5,5.9C59.3,292.2,51.7,292.4,46.8,287.9z"/>
		<path fill="#E2926D" d="M15.3,239.5L15.3,239.5c0-4.1,3.3-7.4,7.4-7.4h6.4c4.1,0,7.4,3.3,7.4,7.4v0"/>
	</g>
	<path fill="#D68A65" d="M45.3,363.9l-29.8-35.7c-5.7-5.3-5.9-14.3-0.6-19.9l5.8-6.1c5.3-5.7,14.3-5.9,19.9-0.6L68,327.2
		c5.7,5.3,5.9,14.3,0.6,19.9l-5.8,6.1C57.5,358.9,50.9,369.2,45.3,363.9z"/>
	<path fill="#D68A65" d="M60.4,447.3l-37.5-27.6c-6.8-3.8-9.2-12.5-5.3-19.4l4.2-7.4c3.8-6.9,12.5-9.4,19.3-5.6l32.8,18.3
		c6.8,3.8,9.2,12.5,5.3,19.4l-4.2,7.4C71.1,439.3,67.1,451,60.4,447.3z"/>
	<g>
		<path fill="#D68A65" d="M265.3,541.8c0,22.7-8.7,64.4-42,64.4s-121-62.1-121-84.8c0-22.7,69.4-20.7,102.7-20.7
			S265.3,519.1,265.3,541.8z"/>
		<path fill="#D68A65" d="M189.9,495.4c0-32.8,72.2-78.7,108.1-78.7s27.5,58.3,27.5,91s-14.7,98.4-50.5,98.4
			S189.9,528.2,189.9,495.4z"/>
		<path fill="#D68A65" d="M279.9,388.2c0-64.4,12.4-128.2,25.6-153.2c3.5-6.7,11.9-12.7,14.3-12.7c4.2,0,11.4,0.1,11.2,13.5
			c-0.4,23.9-16.9,96.4-9.1,148.6c4.3,28.5,10.6,39.3,9,66.2c-3.1,49.3-22.3,85.2-29.9,85.2C289.3,535.9,279.9,469.8,279.9,388.2z"
			/>
		<path fill="#D68A65" d="M384.3,632.6l-100,64.5c-5.5,3.6-13,2-16.6-3.6l-94.1-145.8c-3.6-5.5-2-13,3.6-16.6l100-64.5
			c5.5-3.6,13-2,16.6,3.6L387.9,616C391.4,621.5,389.8,629,384.3,632.6z"/>
	</g>
	<g>
		<path fill="#E2926D" d="M263.4,535.7c0,22.7-18.5,46.6-51.8,46.6s-96-51.8-96-74.5s54.2-13.3,87.5-13.3S263.4,512.9,263.4,535.7z"
			/>
		<path fill="#E2926D" d="M183.8,556c0-32.8,33.2-118.7,69.1-118.7s64.9,26.6,64.9,59.3s-11.2,52-39.9,59.3
			C243.2,564.9,183.8,588.7,183.8,556z"/>
		<path fill="#E2926D" d="M274.1,388.2c0-81.6,34-165.9,45.7-165.9s-5.8,58.2-5.8,139.8c0,28.8,9.4,66.8,7.7,93.7
			c-3.1,49.3-19,80.1-26.5,80.1C283.5,535.9,274.1,469.8,274.1,388.2z"/>
	</g>
	<path fill="#D68A65" d="M81.6,521.4l-45.5-9.8c-7.7-0.7-13.5-7.6-12.8-15.5l0.7-8.5c0.7-7.8,7.6-13.7,15.3-13l37.5,3.3
		c7.7,0.7,13.5,7.6,12.8,15.5l-0.7,8.5C88.1,509.7,89.3,522,81.6,521.4z"/>
	<g>
		<g>
			<g>
				<path fill="#5D97BF" d="M282.4,475.7H57.3c-1.1,0-2-0.9-2-2V79.3c0-1.1,0.9-2,2-2h225.1c1.1,0,2,0.9,2,2v394.4
					C284.4,474.8,283.5,475.7,282.4,475.7z"/>
				<rect x="51.7" y="74.3" fill="#3C97D3" width="232.7" height="23.2"/>
				<polyline fill="#F3F3F3" points="72.8,80.3 79.7,94 66,94 				"/>
				<polyline fill="#EFAD4E" points="78.5,80.3 85.4,94 71.7,94 				"/>
				<text transform="matrix(0.9791 0 0 1 91.5211 91.0485)" fill="#F3F3F3" font-family="'MyriadPro-Regular'" font-size="14.0953">crux</text>
				<path fill="#F3F3F3" d="M268.1,83.8h-19c-0.8,0-1.5-0.7-1.5-1.5v-0.6c0-0.8,0.7-1.5,1.5-1.5h19c0.8,0,1.5,0.7,1.5,1.5v0.6
					C269.6,83.2,268.9,83.8,268.1,83.8z"/>
				<path fill="#F3F3F3" d="M268.1,90.1h-19c-0.8,0-1.5-0.7-1.5-1.5V88c0-0.8,0.7-1.5,1.5-1.5h19c0.8,0,1.5,0.7,1.5,1.5v0.6
					C269.6,89.4,268.9,90.1,268.1,90.1z"/>
				<path fill="#F3F3F3" d="M268.1,95.7h-19c-0.8,0-1.5-0.7-1.5-1.5v-0.6c0-0.8,0.7-1.5,1.5-1.5h19c0.8,0,1.5,0.7,1.5,1.5v0.6
					C269.6,95.1,268.9,95.7,268.1,95.7z"/>
				<rect x="53" y="97.5" fill="#29B99A" width="232.9" height="65.4"/>
				<rect x="53.4" y="380.5" fill="#29B99A" width="232.9" height="99.3"/>
				<rect x="53" y="162.9" fill="#4C78BC" width="232.9" height="43.2"/>
				<rect x="51.6" y="248.6" fill="#4C78BC" width="232.9" height="43.2"/>
				<g>
					<rect x="155.4" y="129.3" fill="#F3F3F3" width="7.9" height="15.7"/>
					<rect x="171.2" y="129.3" fill="#F3F3F3" width="7.9" height="15.9"/>
					<polyline fill="#F3F3F3" points="167.2,113.4 183.1,133.2 151.4,133.2 					"/>
					<rect x="175.2" y="117.4" fill="#F3F3F3" width="4" height="11.9"/>
				</g>
				<g>
					<rect x="248.4" y="127.8" fill="#F3F3F3" width="12.9" height="4.3"/>
					<polyline fill="#F3F3F3" points="269.8,130 257,136.4 257,123.5 					"/>
					<circle fill="none" stroke="#F3F3F3" stroke-width="2" stroke-miterlimit="10" cx="258.6" cy="130.2" r="14.6"/>
				</g>
				<g>
					<rect x="74.3" y="128.6" fill="#F3F3F3" width="12.9" height="4.3"/>
					<polyline fill="#F3F3F3" points="65.7,130.7 78.6,137.2 78.6,124.3 					"/>
					<circle fill="none" stroke="#F3F3F3" stroke-width="2" stroke-miterlimit="10" cx="77" cy="130.9" r="14.6"/>
				</g>
			</g>
			<text transform="matrix(1 0 0 1 104.6042 187.3146)" fill="#F3F3F3" font-family="'MyriadPro-Regular'" font-size="11.8934">climbing shoes</text>
			<g>
				<circle fill="#2D3F50" cx="77" cy="184.5" r="11.9"/>
				<path fill="#366F7C" d="M77,172.6c6.6,0,11.9,5.3,11.9,11.9s-5.3,11.9-11.9,11.9"/>
			</g>
			<g>
				<g>
					<g>
						<path fill="#010101" d="M85.3,189.2l-3.5-5.1c-0.3-0.7-1.5-1.5-3-2.1l0.2-3.1l-4.8-0.4c-0.6,0-2.1-1.5-2.1-0.9v3.3
							c-2,0.1-3.5,1.5-3.5,3.2c0,1.8,1.7,3.3,3.8,3.3c1,0,1.8-0.3,2.5-0.8l4.1,1.5C82.4,188.7,86.9,195.1,85.3,189.2z"/>
					</g>
				</g>
				<g>
					<defs>
						<path id="SVGID_1_" d="M78.9,188l-4.1-1.5c-0.7,0.5-1.5,0.8-2.5,0.8c-2.1,0-3.8-1.5-3.8-3.3c0-1.7,1.6-3.1,3.5-3.2v-3.3
							c0-0.6,1.5,0.9,2.1,0.9l4.8,0.4l-0.2,3.1c1.5,0.6,2.8,1.4,3,2.1l3.5,5.1C86.9,195.1,82.4,188.7,78.9,188z"/>
					</defs>
					<clipPath id="SVGID_2_">
						<use xlink:href="#SVGID_1_"  overflow="visible"/>
					</clipPath>
					<path clip-path="url(#SVGID_2_)" fill="#D2DA27" d="M77.6,189.2l-7.8-7.2c-0.6-0.6-0.6-1.5,0-2.1l0,0c0.5-0.5,1.4-0.5,1.9,0
						l7.8,7.2c0.6,0.6,0.6,1.5,0,2.1l0,0C79,189.7,78.1,189.6,77.6,189.2z"/>
					<path clip-path="url(#SVGID_2_)" fill="#ECECEC" d="M82.1,183.6l-2.9,1.4c-0.6,0.3-1.4,0.1-1.7-0.5h0c-0.4-0.7-0.2-1.5,0.6-1.9
						l2.9-1.4c0.6-0.3,1.4-0.1,1.7,0.5l0,0C83,182.4,82.8,183.3,82.1,183.6z"/>
				</g>
			</g>
			<g>
				<circle fill="#2D3F50" cx="77" cy="270.2" r="11.9"/>
				<path fill="#366F7C" d="M77,258.3c6.6,0,11.9,5.3,11.9,11.9s-5.3,11.9-11.9,11.9"/>
			</g>
			<g>
				<circle fill="#2D3F50" cx="77" cy="227.3" r="11.9"/>
				<path fill="#366F7C" d="M77,215.4c6.6,0,11.9,5.3,11.9,11.9c0,6.6-5.3,11.9-11.9,11.9"/>
			</g>
			<g>
				<circle fill="#2D3F50" cx="77" cy="314.2" r="11.9"/>
				<path fill="#366F7C" d="M77,302.3c6.6,0,11.9,5.3,11.9,11.9c0,6.6-5.3,11.9-11.9,11.9"/>
			</g>
			<text transform="matrix(1 0 0 1 104.6042 231.3195)" fill="#F3F3F3" font-family="'MyriadPro-Regular'" font-size="11.8934">chalk bags</text>
			<text transform="matrix(1 0 0 1 104.6042 274.7306)" fill="#F3F3F3" font-family="'MyriadPro-Regular'" font-size="11.8934">crash pads</text>
			<text transform="matrix(1 0 0 1 104.6042 317.547)" fill="#F3F3F3" font-family="'MyriadPro-Regular'" font-size="11.8934">carabiners</text>
			<g>
				<path fill="#95A5A6" d="M78.5,235.1h-1.8c-2.6,0-4.7-2.1-4.7-4.7V224c0-1.5,1.2-2.7,2.7-2.7h5.9c1.4,0,2.5,1.1,2.5,2.5v6.6
					C83.2,233,81.1,235.1,78.5,235.1z"/>
				<path fill="#6C7A89" stroke="#010101" stroke-miterlimit="10" d="M80.2,227.3h-5.1c-1.5,0-2.7-1.2-2.7-2.7v-1
					c0-1.5,1.2-2.7,2.7-2.7h5.1c1.5,0,2.7,1.2,2.7,2.7v1C82.9,226.1,81.7,227.3,80.2,227.3z"/>
				<g>
					<defs>
						<path id="SVGID_3_" d="M80.2,226.6h-5.1c-1.5,0-2.7-1.2-2.7-2.7v-1c0-1.5,1.2-2.7,2.7-2.7h5.1c1.5,0,2.7,1.2,2.7,2.7v1
							C82.9,225.4,81.7,226.6,80.2,226.6z"/>
					</defs>
					<clipPath id="SVGID_4_">
						<use xlink:href="#SVGID_3_"  overflow="visible"/>
					</clipPath>
					<path clip-path="url(#SVGID_4_)" fill="#F3F3F3" d="M82.9,227L82.9,227c0-1.7-1.4-3.2-3.2-3.2h-4.1c-1.7,0-3.2,1.4-3.2,3.2l0,0
						"/>
				</g>
				<path fill="#010101" d="M80.1,221h-4.3c-0.3,0-0.5-0.2-0.5-0.5v-0.2c0-0.3,0.2-0.5,0.5-0.5h4.3c0.3,0,0.5,0.2,0.5,0.5v0.2
					C80.5,220.8,80.3,221,80.1,221z"/>
			</g>
			<g>
				<path fill="#D64641" d="M77.7,279h-2c-3,0-5.4-2.4-5.4-5.4v-6.9c0-3,2.4-5.4,5.4-5.4h2c3,0,5.4,2.4,5.4,5.4v6.9
					C83.1,276.5,80.6,279,77.7,279z"/>
				<path fill="#E36A6B" d="M78.6,279.1h-2.4c-2.4,0-4.4-2-4.4-4.4v-7.4c0-2.4,2-4.4,4.4-4.4h2.4c2.4,0,4.4,2,4.4,4.4v7.4
					C83,277.1,81,279.1,78.6,279.1z"/>
				<rect x="74.7" y="266.4" fill="#C0BFBF" width="2" height="9.6"/>
				<rect x="79.5" y="266.4" fill="#C0BFBF" width="2" height="9.6"/>
			</g>
			<g>
				<path fill="none" stroke="#EFAD4E" stroke-width="2" stroke-miterlimit="10" d="M82.2,321.1l-0.9,0.6c-1.1,0.7-2.6,0.4-3.3-0.7
					l-6.5-10.2c-0.7-1.1-0.4-2.6,0.7-3.3l0.9-0.6c1.6-1,3.8-0.6,4.8,1l5.3,8.3C84.3,317.9,83.8,320,82.2,321.1z"/>
				<path fill="#C0BFBF" d="M84,316.9l-0.6,0.4c-0.8,0.5-2,0.3-2.5-0.5l-3.2-5c-0.5-0.8-0.3-2,0.5-2.5l0.6-0.4
					c0.8-0.5,2-0.3,2.5,0.5l3.2,5C85.1,315.2,84.8,316.3,84,316.9z"/>
			</g>
			<path fill="none" stroke="#F3F3F3" stroke-width="2" stroke-miterlimit="10" d="M266.4,194h-10.3c-2.4,0-4.3-1.9-4.3-4.3v-10.3
				c0-2.4,1.9-4.3,4.3-4.3h10.3c2.4,0,4.3,1.9,4.3,4.3v10.3C270.7,192,268.7,194,266.4,194z"/>
			<path fill="none" stroke="#F3F3F3" stroke-width="2" stroke-miterlimit="10" d="M266.4,238.4h-10.3c-2.4,0-4.3-1.9-4.3-4.3v-10.3
				c0-2.4,1.9-4.3,4.3-4.3h10.3c2.4,0,4.3,1.9,4.3,4.3v10.3C270.7,236.4,268.7,238.4,266.4,238.4z"/>
			<path fill="none" stroke="#F3F3F3" stroke-width="2" stroke-miterlimit="10" d="M266.4,323.6h-10.3c-2.4,0-4.3-1.9-4.3-4.3V309
				c0-2.4,1.9-4.3,4.3-4.3h10.3c2.4,0,4.3,1.9,4.3,4.3v10.3C270.7,321.7,268.7,323.6,266.4,323.6z"/>
		</g>
		<line fill="none" stroke="#F3F3F3" stroke-width="2" stroke-miterlimit="10" x1="255.9" y1="228.9" x2="266.6" y2="228.9"/>
		<line fill="none" stroke="#F3F3F3" stroke-width="2" stroke-miterlimit="10" x1="261.3" y1="223.6" x2="261.3" y2="234.3"/>
		<line fill="none" stroke="#F3F3F3" stroke-width="2" stroke-miterlimit="10" x1="255.6" y1="183.7" x2="266.4" y2="183.7"/>
		<line fill="none" stroke="#F3F3F3" stroke-width="2" stroke-miterlimit="10" x1="261" y1="178.4" x2="261" y2="189.1"/>
		<line fill="none" stroke="#F3F3F3" stroke-width="2" stroke-miterlimit="10" x1="255.9" y1="314.2" x2="266.6" y2="314.2"/>
		<line fill="none" stroke="#F3F3F3" stroke-width="2" stroke-miterlimit="10" x1="261.3" y1="308.8" x2="261.3" y2="319.5"/>
		<rect x="53.6" y="337.3" fill="#4C78BC" width="232.9" height="43.2"/>
		<g>
			<line fill="none" stroke="#F3F3F3" stroke-width="2" stroke-miterlimit="10" x1="256.3" y1="358.9" x2="267" y2="358.9"/>
			<line fill="none" stroke="#F3F3F3" stroke-width="2" stroke-miterlimit="10" x1="261.7" y1="353.5" x2="261.7" y2="364.2"/>
			<path fill="none" stroke="#F3F3F3" stroke-width="2" stroke-miterlimit="10" d="M266.8,368.3h-10.3c-2.4,0-4.3-1.9-4.3-4.3v-10.3
				c0-2.4,1.9-4.3,4.3-4.3h10.3c2.4,0,4.3,1.9,4.3,4.3V364C271.1,366.4,269.2,368.3,266.8,368.3z"/>
		</g>
		<g>
			<circle fill="#2D3F50" cx="77.5" cy="358.9" r="11.9"/>
			<path fill="#366F7C" d="M77.5,347c6.6,0,11.9,5.3,11.9,11.9s-5.3,11.9-11.9,11.9"/>
		</g>
		<text transform="matrix(1 0 0 1 104.6042 363.0177)" fill="#F3F3F3" font-family="'MyriadPro-Regular'" font-size="11.8934">ropes</text>
		<g>
			<path opacity="0.75" fill="none" stroke="#4FBA6F" stroke-miterlimit="10" d="M77.2,360.8c0.3-1.4,2.8-14.9,7.5-11
				c0.9,0.9,1.4,2.1,1.5,3.6c-0.5,8.7-17.3,0.8-18.2,8C67.5,365.6,76.3,365.9,77.2,360.8z"/>
			<path opacity="0.75" fill="none" stroke="#4FBA6F" stroke-miterlimit="10" d="M84.7,353.3c2.3-3.4,0.6-4.4-5.1-3
				c-4.6,4.6,1.5,14.6-9.3,15.8c-0.8-1.1-1.3-2.2-1.6-3.5C69.1,360,82.4,355.8,84.7,353.3z"/>
			<path opacity="0.75" fill="none" stroke="#4FBA6F" stroke-miterlimit="10" d="M77.6,357.7c0.7,5.3-2.4,7.5-7.3,8.7
				c-1.2-10.7,15.5-8.3,13.7-16C76.5,346.7,76.8,351.7,77.6,357.7z"/>
			<path opacity="0.75" fill="none" stroke="#4FBA6F" stroke-miterlimit="10" d="M76,360.1c-0.6-0.6-1.1-1.3-1.2-2.2
				c1.2-0.6,2.8-0.1,3.4,1c0.3,0.5,0.4,1.1,0.4,1.6c-1.9,0.3-4.1-0.9-4.5-2.8c1.1,0.4,2.5-0.6,3.6,0c0.9,0.5,1,1.8,0.9,2.9
				c-1.6,0.4-3.4-0.1-4.6-1.2c-0.5-0.4-0.9-1.1-0.5-1.6c0.2-0.3,0.6-0.4,1-0.5c1.3-0.2,2.6-0.4,3.9-0.6c0.7,0.9,1,2.1,0.7,3.2
				c-2.5,1.1-5.7-0.4-6.5-3c1.3-0.1,2.6-0.2,3.9-0.2c0.5,0,1.1,0,1.5,0.3c1.1,0.6,1,2.1,0.9,3.3c-1.7,0.4-3.3-1.1-4.5-2.5
				c-0.2-0.2-0.3-0.4-0.3-0.6c0-0.5,0.6-0.7,1.1-0.8c0.6-0.1,1.1-0.2,1.7-0.2c0.5,0,1,0,1.4,0.2c0.8,0.5,0.9,1.7,0.9,2.7
				c-2,0.2-4.2-1.3-4-3.3c0.9-0.1,1.8-0.3,2.7-0.1S75.7,359.2,76,360.1z"/>
			<path opacity="0.75" fill="none" stroke="#4FBA6F" stroke-miterlimit="10" d="M77,361.9c0.3-1.4,3.6-14.7,8.1-10.6
				c0.8,1,1.3,2.2,1.3,3.6c-1,8.6-17.3-0.1-18.6,7.1"/>
			<path opacity="0.75" fill="none" stroke="#4FBA6F" stroke-miterlimit="10" d="M68.4,363.3c0.5-2.6,14.1-6.1,16.5-8.5
				c2.5-3.2,0.8-4.3-5-3.2c-4.8,4.4,0.8,14.7-10.1,15.3"/>
			<path opacity="0.75" fill="none" stroke="#4FBA6F" stroke-miterlimit="10" d="M69.8,367.2c-0.6-10.7,15.9-7.5,14.5-15.3
				c-7.3-4.1-7.2,0.8-6.8,6.9"/>
		</g>
		<g>
			<path fill="#F3F3F3" d="M149.1,413.2h-7.3c-1.5,0-2.7-1.2-2.7-2.7v-1c0-1.5,1.2-2.7,2.7-2.7h7.3c1.5,0,2.7,1.2,2.7,2.7v1
				C151.7,412,150.5,413.2,149.1,413.2z"/>
			<path fill="#F3F3F3" d="M151.1,430.3l-5.1-19.3c-0.4-1.4,0.5-2.9,1.9-3.2l1-0.3c1.4-0.4,2.9,0.5,3.2,1.9l5.1,19.3
				c0.4,1.4-0.5,2.9-1.9,3.2l-1,0.3C153,432.6,151.5,431.7,151.1,430.3z"/>
			<path fill="#F3F3F3" d="M153.7,432.2h26.7c1.5,0,2.7-1.2,2.7-2.7v-1c0-1.5-1.2-2.7-2.7-2.7h-26.7c-1.5,0-2.7,1.2-2.7,2.7v1
				C151,431,152.2,432.2,153.7,432.2z"/>
			<circle fill="#F3F3F3" cx="154.9" cy="441.6" r="3.2"/>
			<circle fill="#F3F3F3" cx="180.1" cy="441.6" r="3.2"/>
			<path fill="#F3F3F3" d="M176.9,428.8l2.1-13.8c0.2-1.4,1.6-2.4,3-2.2l1,0.2c1.4,0.2,2.4,1.6,2.2,3l-2.1,13.8
				c-0.2,1.4-1.6,2.4-3,2.2l-1-0.2C177.7,431.6,176.7,430.2,176.9,428.8z"/>
		</g>
		<g>
			<path fill="none" stroke="#29B99A" stroke-width="6" stroke-miterlimit="10" d="M266.4,279.5h-10.3c-2.4,0-4.3-1.9-4.3-4.3V265
				c0-2.4,1.9-4.3,4.3-4.3h10.3c2.4,0,4.3,1.9,4.3,4.3v10.3C270.7,277.6,268.8,279.5,266.4,279.5z"/>
			<line fill="none" stroke="#29B99A" stroke-width="5" stroke-miterlimit="10" x1="252.8" y1="267.8" x2="261.6" y2="275.9"/>
			<line fill="none" stroke="#29B99A" stroke-width="4" stroke-miterlimit="10" x1="258.7" y1="277.1" x2="273" y2="263.6"/>
			<path fill="none" stroke="#F3F3F3" stroke-width="2" stroke-miterlimit="10" d="M266.4,279.5h-10.3c-2.4,0-4.3-1.9-4.3-4.3V265
				c0-2.4,1.9-4.3,4.3-4.3h10.3c2.4,0,4.3,1.9,4.3,4.3v10.3C270.7,277.6,268.8,279.5,266.4,279.5z"/>
			<line fill="none" stroke="#F3F3F3" stroke-width="2" stroke-miterlimit="10" x1="255.6" y1="269.8" x2="261.7" y2="275.6"/>
			<line fill="none" stroke="#F3F3F3" stroke-width="2" stroke-miterlimit="10" x1="259.9" y1="275.3" x2="271.3" y2="264.7"/>
		</g>
	</g>
		<g id="Page-1" sketch:type="MSPage">
			<path id="Apple-iPhone-5S" sketch:type="MSShapeGroup" fill="#D2D7D4" d="M41.9,192.6h-3.5v-20h3.5V148h-3.5v-20h3.5v-25.8h-3.5
				V77.5h3.5V39.9c0-20.8,16.8-37.6,37.6-37.6h133.9v-2.3h42.3v2.3h4.7c20.8,0,37.6,16.8,37.6,37.6v467.6
				c0,20.8-16.8,37.6-37.6,37.6H79.5c-20.8,0-37.6-16.8-37.6-37.6V192.6z M148.8,46.9c-0.7,0-1.2,0.5-1.2,1.2v2.3
				c0,0.7,0.5,1.2,1.2,1.2h26.3h14.8c0.7,0,1.2-0.5,1.2-1.2v-2.3c0-0.7-0.5-1.2-1.2-1.2H148.8z M169.3,34c2.9,0,5.3-2.4,5.3-5.3
				s-2.4-5.3-5.3-5.3c-2.9,0-5.3,2.4-5.3,5.3S166.4,34,169.3,34z M59.5,77.5c-1.3,0-2.3,1.1-2.3,2.4v388.9c0,1.3,1.1,2.4,2.3,2.4
				h220.9c1.3,0,2.3-1.1,2.3-2.4V79.8c0-1.3-1.1-2.4-2.3-2.4H59.5z M169.9,528.6c12.3,0,22.3-10,22.3-22.3s-10-22.3-22.3-22.3
				s-22.3,10-22.3,22.3S157.6,528.6,169.9,528.6z M133.5,52.8c1.9,0,3.5-1.6,3.5-3.5s-1.6-3.5-3.5-3.5s-3.5,1.6-3.5,3.5
				S131.6,52.8,133.5,52.8z M169.9,526.3c11,0,20-8.9,20-20s-8.9-20-20-20s-20,8.9-20,20S158.9,526.3,169.9,526.3z"/>
		</g>
		<path fill="#BDC3C7" d="M189.9,51.6h-41.8c-1.1,0-2-0.9-2-2v-0.7c0-1.1,0.9-2,2-2h41.8c1.1,0,2,0.9,2,2v0.7
			C191.9,50.7,191,51.6,189.9,51.6z"/>
		<circle fill="#EDF0F1" stroke="#BDC3C7" stroke-width="4" stroke-miterlimit="10" cx="170.1" cy="505.6" r="21.9"/>
		<polyline opacity="0.2" fill="#FFFFFF" points="57.6,77.5 282.9,77.5 282.9,471.1 		"/>
		<circle fill="#BDC3C7" cx="133.5" cy="49.3" r="3.5"/>
		<ellipse fill="#BDC3C7" cx="169.2" cy="28.3" rx="5.9" ry="5.8"/>
	
		<ellipse transform="matrix(0.9519 0.3064 -0.3064 0.9519 96.506 6.797)" fill="#E2926D" cx="26.6" cy="310.8" rx="15.1" ry="20.8"/>
	
		<ellipse transform="matrix(0.9974 7.226431e-02 -7.226431e-02 0.9974 29.1724 -1.0526)" fill="#E2926D" cx="29.1" cy="402.6" rx="15.1" ry="18.2"/>
	<path fill="#E2926D" d="M46.2,486.5c-0.9,12.3-8.4,21.9-16.7,21.2c-8.3-0.6-14.4-11.1-13.5-23.4c0.9-12.3,14.5-19.4,22.8-18.8
		C47.1,466.2,47,474.2,46.2,486.5z"/>
</g>
</svg>
