<?xml version="1.0" encoding="utf-8"?>
<!-- Generator: Adobe Illustrator 18.0.0, SVG Export Plug-In . SVG Version: 6.00 Build 0)  -->
<!DOCTYPE svg PUBLIC "-//W3C//DTD SVG 1.1//EN" "http://www.w3.org/Graphics/SVG/1.1/DTD/svg11.dtd">
<svg version="1.1" id="Layer_1" xmlns="http://www.w3.org/2000/svg" xmlns:xlink="http://www.w3.org/1999/xlink" x="0px" y="0px"
	 viewBox="0 0 500 500" enable-background="new 0 0 500 500" xml:space="preserve">
<circle fill="#F1A9A0" cx="250" cy="250" r="245"/>
<path fill="#E26A6A" d="M250,5c135.3,0,245,109.7,245,245S385.3,495,250,495"/>
<rect x="72.1" y="167" fill="#ECF0F1" width="229.9" height="117"/>
<rect x="69.9" y="293" fill="#6C7A89" width="233.4" height="27"/>
<path fill="#6C7A89" d="M414,320h-99V167h25.8c40.4,0,73.2,32.8,73.2,73.2V320z"/>
<path fill="#95A5A6" d="M396,250.1h-63.9V185h11.6c28.9,0,52.3,23.4,52.3,52.3V250.1z"/>
<circle fill="#EF4836" cx="72" cy="302" r="9"/>
<circle fill="#F9BF3B" cx="414" cy="302" r="9"/>
<circle fill="#22313F" cx="153" cy="338" r="36"/>
<circle fill="#ECF0F1" cx="153" cy="338" r="18"/>
<circle fill="#22313F" cx="369" cy="338" r="36"/>
<circle fill="#ECF0F1" cx="369" cy="338" r="18"/>
<rect x="279" y="302" fill="#6C7A89" width="54" height="9"/>
</svg>
