<?xml version="1.0" encoding="utf-8"?>
<!-- Generator: Adobe Illustrator 18.0.0, SVG Export Plug-In . SVG Version: 6.00 Build 0)  -->
<!DOCTYPE svg PUBLIC "-//W3C//DTD SVG 1.1//EN" "http://www.w3.org/Graphics/SVG/1.1/DTD/svg11.dtd">
<svg version="1.1" id="Layer_1" xmlns:sketch="http://www.bohemiancoding.com/sketch/ns"
	 xmlns="http://www.w3.org/2000/svg" xmlns:xlink="http://www.w3.org/1999/xlink" x="0px" y="0px" viewBox="0 0 221 464"
	 enable-background="new 0 0 221 464" xml:space="preserve">
<g>
	<g>
		<g>
			<path fill="#5C97BF" d="M206.2,401H17.5c-1.1,0-2-0.9-2-2V68c0-1.1,0.9-2,2-2h188.6c1.1,0,2,0.9,2,2v331
				C208.2,400.1,207.3,401,206.2,401z"/>
			<rect x="12.5" y="63.5" fill="#3498DB" width="195.7" height="19.5"/>
			<polyline fill="#F2F2F2" points="30.3,68.5 36,80 24.5,80 			"/>
			<polyline fill="#F0AD4E" points="35.1,68.5 40.8,80 29.3,80 			"/>
			<text transform="matrix(0.9791 0 0 1 46 77.5595)" fill="#F2F2F2" font-family="'MyriadPro-Regular'" font-size="11.8514">crux</text>
			<path fill="#F2F2F2" d="M194.2,71.5h-15.5c-0.8,0-1.5-0.7-1.5-1.5l0,0c0-0.8,0.7-1.5,1.5-1.5h15.5c0.8,0,1.5,0.7,1.5,1.5l0,0
				C195.8,70.8,195.1,71.5,194.2,71.5z"/>
			<path fill="#F2F2F2" d="M194.2,76.8h-15.5c-0.8,0-1.5-0.7-1.5-1.5l0,0c0-0.8,0.7-1.5,1.5-1.5h15.5c0.8,0,1.5,0.7,1.5,1.5l0,0
				C195.8,76.1,195.1,76.8,194.2,76.8z"/>
			<path fill="#F2F2F2" d="M194.2,81.5h-15.5c-0.8,0-1.5-0.7-1.5-1.5l0,0c0-0.8,0.7-1.5,1.5-1.5h15.5c0.8,0,1.5,0.7,1.5,1.5l0,0
				C195.8,80.8,195.1,81.5,194.2,81.5z"/>
			<rect x="13.6" y="83" fill="#1BBC9B" width="195.8" height="55"/>
			<rect x="13.9" y="320.9" fill="#1BBC9B" width="195.8" height="83.5"/>
			<rect x="13.6" y="138" fill="#4B77BE" width="195.8" height="36.3"/>
			<rect x="12.4" y="210" fill="#4B77BE" width="195.8" height="36.3"/>
			<g>
				<rect x="99.7" y="109.7" fill="#F2F2F2" width="6.7" height="13.2"/>
				<rect x="113" y="109.7" fill="#F2F2F2" width="6.7" height="13.4"/>
				<polyline fill="#F2F2F2" points="109.7,96.4 123,113 96.3,113 				"/>
				<rect x="116.3" y="99.7" fill="#F2F2F2" width="3.3" height="10"/>
			</g>
			<g>
				<rect x="177.9" y="108.5" fill="#F2F2F2" width="10.8" height="3.6"/>
				<polyline fill="#F2F2F2" points="195.9,110.3 185.1,115.7 185.1,104.9 				"/>
				<circle fill="none" stroke="#F2F2F2" stroke-width="2" stroke-miterlimit="10" cx="186.5" cy="110.5" r="12.2"/>
			</g>
			<g>
				<rect x="31.5" y="109.1" fill="#F2F2F2" width="10.8" height="3.6"/>
				<polyline fill="#F2F2F2" points="24.3,110.9 35.2,116.3 35.2,105.5 				"/>
				<circle fill="none" stroke="#F2F2F2" stroke-width="2" stroke-miterlimit="10" cx="33.8" cy="111.1" r="12.2"/>
			</g>
		</g>
		<text transform="matrix(1 0 0 1 57 158.5)" fill="#F2F2F2" font-family="'MyriadPro-Regular'" font-size="10">climbing shoes</text>
		<g>
			<circle fill="#2C3E50" cx="33.8" cy="156.2" r="10"/>
			<path fill="#336E7B" d="M33.8,146.2c5.5,0,10,4.5,10,10s-4.5,10-10,10"/>
		</g>
		<g>
			<g>
				<g>
					<path d="M40.8,160.1l-3-4.3c-0.2-0.6-1.3-1.3-2.5-1.8l0.2-2.6l-4.1-0.4c-0.5,0-1.7-1.2-1.7-0.8v2.8c-1.7,0.1-3,1.3-3,2.7
						c0,1.5,1.4,2.7,3.2,2.7c0.8,0,1.5-0.3,2.1-0.7l3.5,1.2C38.4,159.7,42.1,165,40.8,160.1z"/>
				</g>
			</g>
			<g>
				<defs>
					<path id="SVGID_1_" d="M35.4,159l-3.5-1.2c-0.6,0.4-1.3,0.7-2.1,0.7c-1.7,0-3.2-1.2-3.2-2.7c0-1.4,1.3-2.6,3-2.7v-2.8
						c0-0.5,1.2,0.8,1.7,0.8l4.1,0.4l-0.2,2.6c1.3,0.5,2.3,1.2,2.5,1.8l3,4.3C42.1,165,38.4,159.7,35.4,159z"/>
				</defs>
				<clipPath id="SVGID_2_">
					<use xlink:href="#SVGID_1_"  overflow="visible"/>
				</clipPath>
				<path clip-path="url(#SVGID_2_)" fill="#D2DB23" d="M34.3,160.1l-6.5-6c-0.5-0.5-0.5-1.3,0-1.8l0,0c0.4-0.4,1.2-0.4,1.6,0l6.5,6
					c0.5,0.5,0.5,1.3,0,1.8l0,0C35.4,160.5,34.7,160.5,34.3,160.1z"/>
				<path clip-path="url(#SVGID_2_)" fill="#ECECEC" d="M38,155.4l-2.4,1.2c-0.5,0.3-1.2,0.1-1.5-0.4l0,0c-0.3-0.6-0.1-1.3,0.5-1.6
					l2.4-1.2c0.5-0.3,1.2-0.1,1.5,0.4l0,0C38.9,154.4,38.6,155.1,38,155.4z"/>
			</g>
		</g>
		<g>
			<circle fill="#2C3E50" cx="33.8" cy="228.2" r="10"/>
			<path fill="#336E7B" d="M33.8,218.2c5.5,0,10,4.5,10,10s-4.5,10-10,10"/>
		</g>
		<g>
			<circle fill="#2C3E50" cx="33.8" cy="192.1" r="10"/>
			<path fill="#336E7B" d="M33.8,182.1c5.5,0,10,4.5,10,10s-4.5,10-10,10"/>
		</g>
		<g>
			<circle fill="#2C3E50" cx="33.8" cy="265.2" r="10"/>
			<path fill="#336E7B" d="M33.8,255.2c5.5,0,10,4.5,10,10s-4.5,10-10,10"/>
		</g>
		<text transform="matrix(1 0 0 1 57 195.5)" fill="#F2F2F2" font-family="'MyriadPro-Regular'" font-size="10">chalk bags</text>
		<text transform="matrix(1 0 0 1 57 232)" fill="#F2F2F2" font-family="'MyriadPro-Regular'" font-size="10">crash pads</text>
		<text transform="matrix(1 0 0 1 57 268)" fill="#F2F2F2" font-family="'MyriadPro-Regular'" font-size="10">carabiners</text>
		<g>
			<path fill="#95A5A6" d="M34.3,198.7L34.3,198.7c-2.6,0-4.7-2.1-4.7-4.7v-4.3c0-1.5,1.2-2.7,2.7-2.7h4.2c1.4,0,2.5,1.1,2.5,2.5
				v4.4C39,196.6,36.9,198.7,34.3,198.7z"/>
			<path fill="#6C7A89" stroke="#000000" stroke-miterlimit="10" d="M36.1,192.1h-3.5c-1.5,0-2.7-1.2-2.7-2.7l0,0
				c0-1.5,1.2-2.7,2.7-2.7h3.5c1.5,0,2.7,1.2,2.7,2.7l0,0C38.7,190.9,37.5,192.1,36.1,192.1z"/>
			<g>
				<defs>
					<path id="SVGID_3_" d="M36.1,191.6h-3.5c-1.5,0-2.7-1.2-2.7-2.7l0,0c0-1.5,1.2-2.7,2.7-2.7h3.5c1.5,0,2.7,1.2,2.7,2.7l0,0
						C38.7,190.3,37.5,191.6,36.1,191.6z"/>
				</defs>
				<clipPath id="SVGID_4_">
					<use xlink:href="#SVGID_3_"  overflow="visible"/>
				</clipPath>
				<path clip-path="url(#SVGID_4_)" fill="#F2F2F2" d="M38.7,191.9L38.7,191.9c0-1.5-1.2-2.7-2.7-2.7h-3.5c-1.5,0-2.7,1.2-2.7,2.7
					v0"/>
			</g>
			<path d="M36.3,186.8h-3.5c-0.3,0-0.5-0.2-0.5-0.5l0,0c0-0.3,0.2-0.5,0.5-0.5h3.5c0.3,0,0.5,0.2,0.5,0.5l0,0
				C36.8,186.6,36.6,186.8,36.3,186.8z"/>
		</g>
		<g>
			<path fill="#D64541" d="M33.5,235.6L33.5,235.6c-3,0-5.4-2.4-5.4-5.4v-4.1c0-3,2.4-5.4,5.4-5.4h0c3,0,5.4,2.4,5.4,5.4v4.1
				C38.9,233.1,36.5,235.6,33.5,235.6z"/>
			<path fill="#E26A6A" d="M34.5,235.6h-0.6c-2.4,0-4.4-2-4.4-4.4v-4.9c0-2.4,2-4.4,4.4-4.4h0.6c2.4,0,4.4,2,4.4,4.4v4.9
				C38.8,233.7,36.9,235.6,34.5,235.6z"/>
			<rect x="31.8" y="225" fill="#BFBFBF" width="1.7" height="8.1"/>
			<rect x="35.9" y="225" fill="#BFBFBF" width="1.7" height="8.1"/>
		</g>
		<g>
			<path fill="none" stroke="#F0AD4E" stroke-width="2" stroke-miterlimit="10" d="M37.7,271.3L37.7,271.3c-1.1,0.7-2.6,0.4-3.3-0.7
				l-5.1-7.9c-0.7-1.1-0.4-2.6,0.7-3.3h0c1.6-1,3.8-0.6,4.8,1l3.9,6.1C39.8,268.1,39.3,270.2,37.7,271.3z"/>
			<path fill="#BFBFBF" d="M39.4,267.6L39.4,267.6c-0.8,0.5-2,0.3-2.5-0.5l-2.4-3.7c-0.5-0.8-0.3-2,0.5-2.5l0,0
				c0.8-0.5,2-0.3,2.5,0.5l2.4,3.7C40.5,265.9,40.3,267,39.4,267.6z"/>
		</g>
		<path fill="none" stroke="#F2F2F2" stroke-width="2" stroke-miterlimit="10" d="M192.3,164.1h-7.3c-2.4,0-4.3-1.9-4.3-4.3v-7.3
			c0-2.4,1.9-4.3,4.3-4.3h7.3c2.4,0,4.3,1.9,4.3,4.3v7.3C196.6,162.2,194.7,164.1,192.3,164.1z"/>
		<path fill="none" stroke="#F2F2F2" stroke-width="2" stroke-miterlimit="10" d="M192.3,201.4h-7.3c-2.4,0-4.3-1.9-4.3-4.3v-7.3
			c0-2.4,1.9-4.3,4.3-4.3h7.3c2.4,0,4.3,1.9,4.3,4.3v7.3C196.6,199.5,194.7,201.4,192.3,201.4z"/>
		<path fill="none" stroke="#F2F2F2" stroke-width="2" stroke-miterlimit="10" d="M192.3,273.1h-7.3c-2.4,0-4.3-1.9-4.3-4.3v-7.3
			c0-2.4,1.9-4.3,4.3-4.3h7.3c2.4,0,4.3,1.9,4.3,4.3v7.3C196.6,271.2,194.7,273.1,192.3,273.1z"/>
	</g>
	<line fill="none" stroke="#F2F2F2" stroke-width="2" stroke-miterlimit="10" x1="184.2" y1="193.5" x2="193.2" y2="193.5"/>
	<line fill="none" stroke="#F2F2F2" stroke-width="2" stroke-miterlimit="10" x1="188.7" y1="189" x2="188.7" y2="198"/>
	<line fill="none" stroke="#F2F2F2" stroke-width="2" stroke-miterlimit="10" x1="184" y1="155.5" x2="193" y2="155.5"/>
	<line fill="none" stroke="#F2F2F2" stroke-width="2" stroke-miterlimit="10" x1="188.5" y1="151" x2="188.5" y2="160"/>
	<line fill="none" stroke="#F2F2F2" stroke-width="2" stroke-miterlimit="10" x1="184.2" y1="265.2" x2="193.2" y2="265.2"/>
	<line fill="none" stroke="#F2F2F2" stroke-width="2" stroke-miterlimit="10" x1="188.7" y1="260.7" x2="188.7" y2="269.7"/>
	<rect x="14.1" y="284.6" fill="#4B77BE" width="195.8" height="36.3"/>
	<g>
		<line fill="none" stroke="#F2F2F2" stroke-width="2" stroke-miterlimit="10" x1="184.6" y1="302.7" x2="193.6" y2="302.7"/>
		<line fill="none" stroke="#F2F2F2" stroke-width="2" stroke-miterlimit="10" x1="189.1" y1="298.2" x2="189.1" y2="307.2"/>
		<path fill="none" stroke="#F2F2F2" stroke-width="2" stroke-miterlimit="10" d="M192.7,310.7h-7.3c-2.4,0-4.3-1.9-4.3-4.3v-7.3
			c0-2.4,1.9-4.3,4.3-4.3h7.3c2.4,0,4.3,1.9,4.3,4.3v7.3C197,308.7,195.1,310.7,192.7,310.7z"/>
	</g>
	<g>
		<circle fill="#2C3E50" cx="34.2" cy="302.7" r="10"/>
		<path fill="#336E7B" d="M34.2,292.7c5.5,0,10,4.5,10,10s-4.5,10-10,10"/>
	</g>
	<text transform="matrix(1 0 0 1 57 306.2324)" fill="#F2F2F2" font-family="'MyriadPro-Regular'" font-size="10">ropes</text>
	<g>
		<path opacity="0.75" fill="none" stroke="#2ECC71" stroke-miterlimit="10" d="M34,304.4c0.2-1.2,2.3-12.5,6.3-9.2
			c0.8,0.8,1.2,1.8,1.3,3c-0.4,7.3-14.5,0.7-15.3,6.7C25.8,308.4,33.2,308.7,34,304.4z"/>
		<path opacity="0.75" fill="none" stroke="#2ECC71" stroke-miterlimit="10" d="M40.3,298c1.9-2.8,0.5-3.7-4.3-2.5
			c-3.9,3.9,1.3,12.3-7.8,13.3c-0.7-0.9-1.1-1.9-1.4-3C27.1,303.7,38.3,300.2,40.3,298z"/>
		<path opacity="0.75" fill="none" stroke="#2ECC71" stroke-miterlimit="10" d="M34.3,301.8c0.6,4.5-2,6.3-6.2,7.3
			c-1-9,13-7,11.5-13.4C33.4,292.5,33.6,296.7,34.3,301.8z"/>
		<path opacity="0.75" fill="none" stroke="#2ECC71" stroke-miterlimit="10" d="M32.9,303.8c-0.5-0.5-0.9-1.1-1-1.8
			c1-0.5,2.3-0.1,2.9,0.9c0.2,0.4,0.3,0.9,0.3,1.4c-1.6,0.3-3.5-0.8-3.8-2.4c1,0.3,2.1-0.5,3,0c0.8,0.4,0.8,1.5,0.8,2.4
			c-1.4,0.3-2.9-0.1-3.9-1c-0.4-0.3-0.7-0.9-0.4-1.3c0.2-0.3,0.5-0.3,0.9-0.4c1.1-0.2,2.2-0.3,3.2-0.5c0.6,0.8,0.8,1.8,0.6,2.7
			c-2.1,0.9-4.8-0.4-5.5-2.5c1.1-0.1,2.2-0.2,3.3-0.2c0.4,0,0.9,0,1.3,0.2c0.9,0.5,0.9,1.8,0.7,2.8c-1.5,0.3-2.8-0.9-3.8-2.1
			c-0.1-0.2-0.3-0.3-0.3-0.5c0-0.4,0.5-0.6,0.9-0.7c0.5-0.1,0.9-0.1,1.4-0.2c0.4,0,0.9,0,1.2,0.2c0.7,0.4,0.8,1.4,0.7,2.3
			c-1.6,0.1-3.5-1.1-3.4-2.7c0.8-0.1,1.5-0.2,2.3-0.1S32.7,303,32.9,303.8z"/>
		<path opacity="0.75" fill="none" stroke="#2ECC71" stroke-miterlimit="10" d="M33.8,305.3c0.3-1.2,3-12.4,6.8-8.9
			c0.7,0.8,1.1,1.9,1.1,3c-0.8,7.2-14.6-0.1-15.6,5.9"/>
		<path opacity="0.75" fill="none" stroke="#2ECC71" stroke-miterlimit="10" d="M26.5,306.4c0.5-2.2,11.8-5.1,13.9-7.2
			c2.1-2.7,0.7-3.6-4.2-2.7c-4.1,3.7,0.7,12.3-8.5,12.9"/>
		<path opacity="0.75" fill="none" stroke="#2ECC71" stroke-miterlimit="10" d="M27.7,309.7c-0.5-9,13.4-6.3,12.2-12.8
			c-6.1-3.5-6.1,0.7-5.7,5.8"/>
	</g>
	<g>
		<path fill="#F2F2F2" d="M94,348.5h-5.3c-1.5,0-2.7-1.2-2.7-2.7l0,0c0-1.5,1.2-2.7,2.7-2.7H94c1.5,0,2.7,1.2,2.7,2.7l0,0
			C96.6,347.3,95.4,348.5,94,348.5z"/>
		<path fill="#F2F2F2" d="M96,362.4L91.9,347c-0.4-1.4,0.5-2.9,1.9-3.2h0c1.4-0.4,2.9,0.5,3.2,1.9l4.1,15.4c0.4,1.4-0.5,2.9-1.9,3.2
			h0C97.9,364.7,96.4,363.8,96,362.4z"/>
		<path fill="#F2F2F2" d="M98.7,364.4h21.6c1.5,0,2.7-1.2,2.7-2.7v0c0-1.5-1.2-2.7-2.7-2.7H98.7c-1.5,0-2.7,1.2-2.7,2.7v0
			C96,363.2,97.2,364.4,98.7,364.4z"/>
		<circle fill="#F2F2F2" cx="99.3" cy="372.3" r="2.7"/>
		<circle fill="#F2F2F2" cx="120.5" cy="372.3" r="2.7"/>
		<path fill="#F2F2F2" d="M117.9,361.1l1.7-10.8c0.2-1.4,1.6-2.4,3-2.2h0c1.4,0.2,2.4,1.6,2.2,3l-1.7,10.8c-0.2,1.4-1.6,2.4-3,2.2h0
			C118.7,363.9,117.7,362.5,117.9,361.1z"/>
	</g>
	<g>
		<path fill="none" stroke="#1BBC9B" stroke-width="6" stroke-miterlimit="10" d="M192.4,236h-7.3c-2.4,0-4.3-1.9-4.3-4.3v-7.3
			c0-2.4,1.9-4.3,4.3-4.3h7.3c2.4,0,4.3,1.9,4.3,4.3v7.3C196.7,234.1,194.7,236,192.4,236z"/>
		<line fill="none" stroke="#1BBC9B" stroke-width="5" stroke-miterlimit="10" x1="181.6" y1="226.2" x2="189" y2="233"/>
		<line fill="none" stroke="#1BBC9B" stroke-width="4" stroke-miterlimit="10" x1="186.6" y1="234" x2="198.6" y2="222.6"/>
		<path fill="none" stroke="#F2F2F2" stroke-width="2" stroke-miterlimit="10" d="M192.4,236h-7.3c-2.4,0-4.3-1.9-4.3-4.3v-7.3
			c0-2.4,1.9-4.3,4.3-4.3h7.3c2.4,0,4.3,1.9,4.3,4.3v7.3C196.7,234.1,194.7,236,192.4,236z"/>
		<line fill="none" stroke="#F2F2F2" stroke-width="2" stroke-miterlimit="10" x1="184" y1="227.9" x2="189.1" y2="232.7"/>
		<line fill="none" stroke="#F2F2F2" stroke-width="2" stroke-miterlimit="10" x1="187.5" y1="232.5" x2="197.1" y2="223.6"/>
	</g>
</g>
<title>apple-iphone-5s</title>
<description>Created with Sketch (http://www.bohemiancoding.com/sketch)</description>
<g id="Page-1" sketch:type="MSPage">
	<path id="Apple-iPhone-5S" sketch:type="MSShapeGroup" fill="#D2D7D3" d="M3,164H0v-17h3v-21H0v-17h3V87H0V66h3V34
		C3,16.3,17.3,2,35,2h114V0h36v2h4c17.7,0,32,14.3,32,32v398c0,17.7-14.3,32-32,32H35c-17.7,0-32-14.3-32-32V164z M94,40
		c-0.6,0-1,0.4-1,1v2c0,0.6,0.5,1,1,1h22.4H129c0.6,0,1-0.4,1-1v-2c0-0.6-0.4-1-1-1H94z M111.5,29c2.5,0,4.5-2,4.5-4.5
		s-2-4.5-4.5-4.5s-4.5,2-4.5,4.5S109,29,111.5,29z M18,66c-1.1,0-2,0.9-2,2v331c0,1.1,0.9,2,2,2h188c1.1,0,2-0.9,2-2V68
		c0-1.1-0.9-2-2-2H18z M112,450c10.5,0,19-8.5,19-19s-8.5-19-19-19s-19,8.5-19,19S101.5,450,112,450z M81,45c1.7,0,3-1.3,3-3
		s-1.3-3-3-3s-3,1.3-3,3S79.3,45,81,45z M112,448c9.4,0,17-7.6,17-17s-7.6-17-17-17s-17,7.6-17,17S102.6,448,112,448z"/>
</g>
<path fill="#BDC3C7" d="M128.7,44h-35c-1.1,0-2-0.9-2-2v0c0-1.1,0.9-2,2-2h35c1.1,0,2,0.9,2,2v0C130.7,43.1,129.8,44,128.7,44z"/>
<circle fill="#ECF0F1" stroke="#BDC3C7" stroke-width="4" stroke-miterlimit="10" cx="112.1" cy="430.4" r="18.6"/>
<polyline opacity="0.2" fill="#FFFFFF" points="16.4,66 208.2,66 208.2,401 "/>
<circle fill="#BDC3C7" cx="81" cy="42" r="3"/>
<ellipse fill="#BDC3C7" cx="111.4" cy="24.2" rx="5.1" ry="5"/>
<path fill="none" stroke="#F2F2F2" stroke-width="2" stroke-miterlimit="10" d="M189.1,233.7"/>
<path fill="none" stroke="#F2F2F2" stroke-width="2" stroke-miterlimit="10" d="M43.7,268"/>
</svg>
